<svg width="32" height="33" viewBox="0 0 32 33" fill="none" xmlns="http://www.w3.org/2000/svg">
<path d="M19.7333 9.46993C19.7333 8.40327 19.3599 7.51438 18.6133 6.80327C17.8666 6.09216 16.9955 5.7366 15.9999 5.7366C15.0044 5.7366 14.1333 6.09216 13.3866 6.80327C12.6399 7.51438 12.2666 8.38549 12.2666 9.4166C12.2666 10.4477 12.6399 11.3188 13.3866 12.0299C14.1333 12.741 15.0044 13.0966 15.9999 13.0966C16.9955 13.0966 17.8666 12.741 18.6133 12.0299C19.3599 11.3188 19.7333 10.4655 19.7333 9.46993ZM13.2266 9.46993C13.2266 8.68771 13.4933 8.01216 14.0266 7.44327C14.5599 6.87438 15.2177 6.58993 15.9999 6.58993C16.7822 6.58993 17.4399 6.87438 17.9733 7.44327C18.5066 8.01216 18.7733 8.68771 18.7733 9.46993C18.7733 10.2522 18.5066 10.9099 17.9733 11.4433C17.4399 11.9766 16.7822 12.2433 15.9999 12.2433C15.2177 12.2433 14.5599 11.9766 14.0266 11.4433C13.4933 10.9099 13.2266 10.2522 13.2266 9.46993ZM30.8266 30.4833L27.3066 21.0966C27.2355 20.8833 27.0933 20.7766 26.8799 20.7766H20.1599L20.2666 20.6699C22.8266 16.3322 24.1066 12.5988 24.1066 9.46993C24.1066 7.9766 23.7511 6.60771 23.0399 5.36327C22.3288 4.11882 21.3511 3.14104 20.1066 2.42993C18.8622 1.71882 17.4933 1.36327 15.9999 1.36327C14.5066 1.36327 13.1377 1.71882 11.8933 2.42993C10.6488 3.14104 9.67106 4.11882 8.95995 5.36327C8.24884 6.60771 7.89328 7.9766 7.89328 9.46993C7.89328 12.5988 9.17328 16.3322 11.7333 20.6699L11.8399 20.7766H5.11995C4.90662 20.7766 4.76439 20.8833 4.69328 21.0966L1.17328 30.4833C1.10217 30.6255 1.11995 30.7499 1.22662 30.8566C1.33328 30.9633 1.45773 31.0166 1.59995 31.0166H30.3999C30.5422 31.0166 30.6666 30.9633 30.7733 30.8566C30.8799 30.7499 30.8977 30.6255 30.8266 30.4833ZM8.74662 9.46993C8.74662 8.11882 9.06662 6.89216 9.70662 5.78993C10.3466 4.68771 11.2355 3.8166 12.3733 3.1766C13.5111 2.5366 14.7199 2.2166 15.9999 2.2166C17.2799 2.2166 18.4888 2.5366 19.6266 3.1766C20.7644 3.8166 21.6533 4.68771 22.2933 5.78993C22.9333 6.89216 23.2533 8.11882 23.2533 9.46993C23.2533 12.101 22.2222 15.2655 20.1599 18.9633C18.9511 21.0966 17.5644 23.1588 15.9999 25.1499C14.4355 23.1588 13.0488 21.0966 11.8399 18.9633C9.77773 15.2655 8.74662 12.101 8.74662 9.46993ZM15.6799 26.1099C15.7511 26.2522 15.8577 26.3233 15.9999 26.3233C16.1422 26.3233 16.2488 26.2522 16.3199 26.1099C17.4577 24.6877 18.5244 23.2299 19.5199 21.7366H26.5599L27.0933 23.1233L13.4399 28.0299L8.53328 21.7366H12.4799C13.4755 23.2299 14.5422 24.6877 15.6799 26.1099ZM13.4399 28.9899L21.5466 26.1099L24.7466 30.1633H10.0266L13.4399 28.9899ZM5.43995 21.7366H7.46662L12.5866 28.3499L7.46662 30.1633H2.23995L5.43995 21.7366ZM25.8133 30.1633L22.3999 25.7899L27.4133 23.9766L29.7599 30.1633H25.8133Z" fill="#0E9E4D"/>
</svg>
