<svg width="32" height="33" viewBox="0 0 32 33" fill="none" xmlns="http://www.w3.org/2000/svg">
<g clip-path="url(#clip0_78_1090)">
<path d="M31.1467 24.8299L24.6401 20.5633C24.2845 20.2788 23.8578 20.1722 23.3601 20.2433C22.8623 20.3144 22.4712 20.5633 22.1867 20.9899L20.2667 23.4433C20.1245 23.5855 19.9645 23.6744 19.7867 23.7099C19.609 23.7455 19.4134 23.7277 19.2001 23.6566L18.8801 23.4433C18.0267 22.9455 17.3156 22.4833 16.7467 22.0566C15.6801 21.3455 14.489 20.3322 13.1734 19.0166C11.8578 17.7011 10.8445 16.5099 10.1334 15.4433C9.70674 14.8744 9.24451 14.1633 8.74674 13.3099L8.5334 12.9899C8.46229 12.7766 8.44451 12.5811 8.48007 12.4033C8.51562 12.2255 8.60451 12.0655 8.74674 11.9233L11.2001 10.0033C11.6267 9.71883 11.8756 9.32772 11.9467 8.82994C12.0178 8.33216 11.9112 7.9055 11.6267 7.54994L7.36007 1.04327C7.07562 0.616608 6.68451 0.349941 6.18674 0.243275C5.68896 0.136608 5.22674 0.225496 4.80007 0.509941L2.02674 2.10994C1.1734 2.60772 0.604513 3.35439 0.320069 4.34994C-0.24882 6.55438 -0.0354869 8.97216 0.960069 11.6033C2.31118 15.1588 5.04896 18.9988 9.1734 23.1233C15.2178 29.1677 20.6223 32.1899 25.3867 32.1899C26.169 32.1899 26.9867 32.0833 27.8401 31.8699C28.8356 31.5855 29.5823 31.0166 30.0801 30.1633L31.6801 27.3899C31.9645 26.9633 32.0534 26.5011 31.9467 26.0033C31.8401 25.5055 31.5734 25.1144 31.1467 24.8299ZM30.8267 26.8566L29.2267 29.5233C28.8001 30.1633 28.2312 30.5899 27.5201 30.8033C25.529 31.3722 23.2534 31.1588 20.6934 30.1633C17.4223 28.8833 13.8134 26.2699 9.86674 22.3233C5.92007 18.3766 3.30674 14.7677 2.02674 11.4966C1.03118 8.93661 0.817846 6.66105 1.38674 4.66994C1.60007 3.95883 2.02674 3.38994 2.66674 2.96327L5.3334 1.36327C5.54674 1.29216 5.76007 1.27439 5.9734 1.30994C6.18674 1.3455 6.32896 1.43439 6.40007 1.57661L10.7734 8.08327C10.8445 8.29661 10.8623 8.50994 10.8267 8.72327C10.7912 8.93661 10.7023 9.07883 10.5601 9.14994L8.10674 11.0699C7.75118 11.3544 7.52007 11.7277 7.4134 12.1899C7.30674 12.6522 7.39562 13.0966 7.68007 13.5233L7.78674 13.8433C8.28451 14.6966 8.78229 15.4433 9.28007 16.0833C10.0623 17.1499 11.129 18.3588 12.4801 19.7099C13.8312 21.0611 15.0401 22.1277 16.1067 22.9099C16.7467 23.4077 17.4934 23.8699 18.3467 24.2966L18.6667 24.5099C19.0934 24.7944 19.5378 24.8833 20.0001 24.7766C20.4623 24.6699 20.8356 24.4388 21.1201 24.0833L23.0401 21.6299C23.1112 21.4877 23.2534 21.3988 23.4667 21.3633C23.6801 21.3277 23.8934 21.3455 24.1067 21.4166L30.6134 25.7899C30.7556 25.8611 30.8445 26.0033 30.8801 26.2166C30.9156 26.4299 30.8978 26.6433 30.8267 26.8566ZM18.1334 5.52327C19.769 5.52327 21.2801 5.93216 22.6667 6.74994C24.0534 7.56772 25.1556 8.66994 25.9734 10.0566C26.7912 11.4433 27.2001 12.9544 27.2001 14.5899C27.2001 14.7322 27.2534 14.8566 27.3601 14.9633C27.4667 15.0699 27.5912 15.1233 27.7334 15.1233C27.8756 15.1233 28.0001 15.0699 28.1067 14.9633C28.2134 14.8566 28.2667 14.7322 28.2667 14.5899C28.2667 12.7411 27.8045 11.0522 26.8801 9.52327C25.9556 7.99438 24.729 6.76772 23.2001 5.84327C21.6712 4.91883 19.9823 4.45661 18.1334 4.45661C17.9912 4.45661 17.8667 4.50994 17.7601 4.61661C17.6534 4.72327 17.6001 4.84772 17.6001 4.98994C17.6001 5.13216 17.6534 5.25661 17.7601 5.36327C17.8667 5.46994 17.9912 5.52327 18.1334 5.52327ZM18.1334 8.72327C19.769 8.72327 21.1556 9.29216 22.2934 10.4299C23.4312 11.5677 24.0001 12.9544 24.0001 14.5899C24.0001 14.7322 24.0534 14.8566 24.1601 14.9633C24.2667 15.0699 24.3912 15.1233 24.5334 15.1233C24.6756 15.1233 24.8001 15.0699 24.9067 14.9633C25.0134 14.8566 25.0667 14.7322 25.0667 14.5899C25.0667 13.3099 24.7467 12.1544 24.1067 11.1233C23.4667 10.0922 22.6312 9.25661 21.6001 8.61661C20.569 7.97661 19.4134 7.65661 18.1334 7.65661C17.9912 7.65661 17.8667 7.70994 17.7601 7.81661C17.6534 7.92327 17.6001 8.04772 17.6001 8.18994C17.6001 8.33216 17.6534 8.45661 17.7601 8.56327C17.8667 8.66994 17.9912 8.72327 18.1334 8.72327ZM18.1334 11.9233C18.8445 11.9233 19.4667 12.1899 20.0001 12.7233C20.5334 13.2566 20.8001 13.8788 20.8001 14.5899C20.8001 14.7322 20.8534 14.8566 20.9601 14.9633C21.0667 15.0699 21.1912 15.1233 21.3334 15.1233C21.4756 15.1233 21.6001 15.0699 21.7067 14.9633C21.8134 14.8566 21.8667 14.7322 21.8667 14.5899C21.8667 13.5944 21.4934 12.7233 20.7467 11.9766C20.0001 11.2299 19.129 10.8566 18.1334 10.8566C17.9912 10.8566 17.8667 10.9099 17.7601 11.0166C17.6534 11.1233 17.6001 11.2477 17.6001 11.3899C17.6001 11.5322 17.6534 11.6566 17.7601 11.7633C17.8667 11.8699 17.9912 11.9233 18.1334 11.9233Z" fill="#0E9E4D"/>
</g>
<defs>
<clipPath id="clip0_78_1090">
<rect width="32" height="32" fill="white" transform="matrix(1 0 0 -1 0 32.1899)"/>
</clipPath>
</defs>
</svg>
