<svg width="32" height="33" viewBox="0 0 32 33" fill="none" xmlns="http://www.w3.org/2000/svg">
<g clip-path="url(#clip0_78_1096)">
<path d="M29.3333 4.13672H2.66667C1.95556 4.20783 1.33333 4.49227 0.8 4.99005C0.266667 5.48783 0 6.12783 0 6.91005V25.5767C0 26.2878 0.266667 26.8923 0.8 27.3901C1.33333 27.8878 1.95556 28.1367 2.66667 28.1367H29.3333C30.0444 28.1367 30.6667 27.8878 31.2 27.3901C31.7333 26.8923 32 26.2523 32 25.4701V6.91005C32 6.12783 31.7333 5.48783 31.2 4.99005C30.6667 4.49227 30.0444 4.24339 29.3333 4.24339V4.13672ZM2.66667 5.52338H29.3333L29.6533 5.63005L16.96 17.1501C16.6756 17.3634 16.3556 17.4701 16 17.4701C15.6444 17.4701 15.3244 17.3634 15.04 17.1501L2.34667 5.63005L2.66667 5.52338ZM1.28 25.4701V6.91005L1.38667 6.48339L11.9467 16.1901C9.45778 18.3234 5.93778 21.5589 1.38667 25.8967L1.28 25.4701ZM29.3333 26.8567H2.66667L2.34667 26.7501C6.96889 22.4123 10.5244 19.1767 13.0133 17.0434L14.1867 18.1101C14.6844 18.6078 15.2889 18.8567 16 18.8567C16.7111 18.8567 17.3156 18.6078 17.8133 18.1101L18.9867 17.0434C21.4756 19.1767 25.0311 22.4123 29.6533 26.7501L29.3333 26.8567ZM30.72 25.4701C30.72 25.5412 30.6844 25.6478 30.6133 25.7901V25.8967C26.0622 21.5589 22.5422 18.3234 20.0533 16.1901L30.6133 6.48339L30.72 6.80338V25.4701Z" fill="#0E9E4D"/>
</g>
<defs>
<clipPath id="clip0_78_1096">
<rect width="32" height="32" fill="white" transform="matrix(1 0 0 -1 0 32.1899)"/>
</clipPath>
</defs>
</svg>
