<svg xmlns="http://www.w3.org/2000/svg" version="1.1" xmlns:xlink="http://www.w3.org/1999/xlink" xmlns:svgjs="http://svgjs.dev/svgjs" width="2000" height="2384" viewBox="0 0 2000 2384"><g transform="matrix(1,0,0,1,-3.9599717964811134,-3.8451612903227215)"><svg viewBox="0 0 208 248" data-background-color="#ffffff" preserveAspectRatio="xMidYMid meet" height="2384" width="2000" xmlns="http://www.w3.org/2000/svg" xmlns:xlink="http://www.w3.org/1999/xlink"><g id="tight-bounds" transform="matrix(1,0,0,1,0.411837066834039,0.4000000000000057)"><svg viewBox="0 0 207.17632586633195 247.2" height="247.2" width="207.17632586633195"><g><svg viewBox="0 0 395.52 471.9291337519029" height="247.2" width="207.17632586633195"><g transform="matrix(1,0,0,1,0,381.71603502267516)"><svg viewBox="0 0 395.52 90.21309872922777" height="90.21309872922777" width="395.52"><g id="textblocktransform"><svg viewBox="0 0 395.52 90.21309872922777" height="90.21309872922777" width="395.52" id="textblock"><g><svg viewBox="0 0 395.52 90.21309872922777" height="90.21309872922777" width="395.52"><g transform="matrix(1,0,0,1,0,0)"><svg width="395.52" viewBox="1.6 -35 153.44 35" height="90.21309872922777" data-palette-color="#424248"><path d="M17.6 0L14 0 14-14.8 1.6-35 5.4-35 16.55-16.7 16.85-16.7 25.75-35 29.55-35 17.6-15.5 17.6 0ZM32.8 0L29.15 0 42.6-35 45.7-35 59.15 0 55.5 0 49.3-16.4 37.95-16.4 32.8 0ZM43.25-32.4L42.95-32.4 38.3-17.6 48.85-17.6 43.25-32.4ZM75.65 0L72.25 0 72.25-34Q71.5-34 69.15-33.7L69.15-33.7 59.35-32.45 59.35-35 88.55-35 88.55-32.45 78.75-33.7Q76.4-34 75.65-34L75.65-34 75.65 0ZM96.64 0L96.64-35 103.34-35Q108.64-35 111.57-32.77 114.49-30.55 114.49-26.55L114.49-26.55Q114.49-23.45 112.67-21.4 110.84-19.35 107.39-18.65L107.39-18.65 107.39-18.35Q110.69-17.7 112.79-15.25 114.89-12.8 115.94-9.2L115.94-9.2Q116.89-5.9 117.82-4.08 118.74-2.25 119.87-1.45 120.99-0.65 122.54-0.3L122.54-0.3 122.54 0 120.49 0Q118.29 0 116.87-0.8 115.44-1.6 114.44-3.5 113.44-5.4 112.54-8.75L112.54-8.75Q111.09-13.9 108.69-16.05 106.29-18.2 102.84-18.2L102.84-18.2 102.54-18.2 102.54-19.1 102.84-19.1Q110.89-19.1 110.89-26.5L110.89-26.5Q110.89-33.8 103.34-33.8L103.34-33.8 100.04-33.8 100.04 0 96.64 0ZM128.69 0L125.04 0 138.49-35 141.59-35 155.04 0 151.39 0 145.19-16.4 133.84-16.4 128.69 0ZM139.14-32.4L138.84-32.4 134.19-17.6 144.74-17.6 139.14-32.4Z" opacity="1" transform="matrix(1,0,0,1,0,0)" fill="#424248" class="wordmark-text-0" data-fill-palette-color="primary" id="text-0"></path></svg></g></svg></g></svg></g></svg></g><g transform="matrix(1,0,0,1,28.19912998426358,0)"><svg viewBox="0 0 339.1217400314728 339.1217400314728" height="339.1217400314728" width="339.1217400314728"><g><svg></svg></g><g id="icon-0"><svg viewBox="0 0 339.1217400314728 339.1217400314728" height="339.1217400314728" width="339.1217400314728"><g><path d="M0 169.561c0-93.646 75.915-169.561 169.561-169.561 93.646 0 169.561 75.915 169.561 169.561 0 93.646-75.915 169.561-169.561 169.561-93.646 0-169.561-75.915-169.561-169.561zM169.561 330.986c89.153 0 161.425-72.273 161.425-161.425 0-89.153-72.273-161.425-161.425-161.425-89.153 0-161.425 72.273-161.425 161.425 0 89.153 72.273 161.425 161.425 161.425z" data-fill-palette-color="accent" fill="#0e9e4d" stroke="transparent"></path></g><g transform="matrix(1,0,0,1,68.91593500273362,68.63809255847782)"><svg viewBox="0 0 201.2898700260056 201.84555491451718" height="201.84555491451718" width="201.2898700260056"><g><svg xmlns="http://www.w3.org/2000/svg" xmlns:xlink="http://www.w3.org/1999/xlink" version="1.1" x="0" y="0" viewBox="1.3564253485114377 1.3159999999999998 29.287149302977124 29.368000000000002" enable-background="new 0 0 32 32" xml:space="preserve" height="201.84555491451718" width="201.2898700260056" class="icon-dxe-0" data-fill-palette-color="accent" id="dxe-0"><path d="M30.171 7.314C30.146 7.04 29.956 6.816 29.75 6.816S29.375 6.647 29.375 6.441 29.153 6.104 28.882 6.149L27.41 6.399C27.114 4.607 26.67 3.486 26 2.816 24 0.816 8 0.816 6 2.816 5.331 3.486 4.886 4.607 4.589 6.399L3.118 6.15C2.847 6.104 2.625 6.235 2.625 6.441S2.456 6.816 2.25 6.816 1.854 7.041 1.829 7.314L1.359 12.38A0.45 0.45 0 0 0 1.813 12.878H2.875A0.56 0.56 0 0 0 3.421 12.38L3.814 8.148A0.46 0.46 0 0 1 4.354 7.733L4.408 7.742C4.007 11.396 4 29.684 4 29.684 4 30.237 4.14 30.684 4.313 30.684H6.875C7.048 30.684 7.188 30.237 7.188 29.684V27.791C11.831 28.489 20.17 28.489 24.813 27.791V29.68C24.813 30.233 24.954 30.68 25.125 30.68H27.687C27.859 30.68 27.999 30.233 27.999 29.68 27.999 29.68 27.992 11.397 27.592 7.743L27.646 7.734A0.46 0.46 0 0 1 28.185 8.149L28.579 12.381A0.56 0.56 0 0 0 29.125 12.879H30.187A0.45 0.45 0 0 0 30.641 12.381zM7.125 23.371A1.812 1.812 0 1 1 7.125 19.746 1.812 1.812 0 0 1 7.126 23.371M5.042 15.977C5.143 8.542 5.491 4.739 6.707 3.523 7.194 3.037 10.484 2.316 16 2.316S24.806 3.036 25.293 3.523C26.51 4.739 26.857 8.543 26.958 15.978 25.783 16.451 22.054 17.003 16 17.003 9.951 17.004 6.222 16.452 5.042 15.977M23.062 21.559A1.812 1.812 0 1 1 26.687 21.559 1.812 1.812 0 0 1 23.062 21.56" fill="#0e9e4d" data-fill-palette-color="accent"></path></svg></g></svg></g></svg></g></svg></g><g></g></svg></g><defs></defs></svg><rect width="207.17632586633195" height="247.2" fill="none" stroke="none" visibility="hidden"></rect></g></svg></g></svg>